<?xml version="1.0" encoding="utf-8"?>
<!-- Generator: Adobe Illustrator 21.0.0, SVG Export Plug-In . SVG Version: 6.00 Build 0)  -->
<!DOCTYPE svg PUBLIC "-//W3C//DTD SVG 1.1//EN" "http://www.w3.org/Graphics/SVG/1.1/DTD/svg11.dtd">
<svg version="1.1" id="Layer_1" xmlns="http://www.w3.org/2000/svg" xmlns:xlink="http://www.w3.org/1999/xlink" x="0px" y="0px"
	 width="60px" height="60px" viewBox="0 0 60 60" enable-background="new 0 0 60 60" xml:space="preserve">
<g>
	<g>
		<rect x="19" y="37" width="22" height="3"/>
	</g>
	<g>
		<rect x="19" y="32" width="22" height="3"/>
	</g>
	<g>
		<rect x="19" y="42" width="22" height="3"/>
	</g>
	<path d="M28,20h-3.1c0,0,0-0.1,0-0.1c0.4-0.8,1.1-1.2,2-1.2h0l1,0v-3l-1,0h0c-1.9,0-3.6,1-4.6,2.7c-0.3,0.5-0.5,1-0.7,1.6H20v3h1.6
		c0.1,0.7,0.3,1.3,0.7,1.9c0.9,1.6,2.5,2.5,4.4,2.5h0l1.2,0v-3l-1.2,0h0c-0.8,0-1.4-0.3-1.8-1c-0.1-0.1-0.1-0.3-0.2-0.4H28V20z"/>
	<path d="M38.1,8H12V52h36l0-34.6L38.1,8z M16,48V12h19v9h9l0,27H16z"/>
</g>
</svg>
